<?xml version="1.0" encoding="UTF-8"?>
<svg id="_レイヤー_1" data-name="レイヤー 1" xmlns="http://www.w3.org/2000/svg" viewBox="0 0 400.34 397.59">
  <defs>
    <style>
      .cls-1 {
        fill: #231815;
      }

      .cls-2 {
        fill: #fff;
      }

      .cls-3 {
        fill: #7dd8ff;
        stroke: #fff;
        stroke-miterlimit: 10;
        stroke-width: 10px;
      }

      .cls-4 {
        fill: #cf6d15;
      }

      .cls-5 {
        fill: #ffdc5d;
      }
    </style>
  </defs>
  <circle class="cls-3" cx="187.38" cy="187.38" r="182.38"/>
  <ellipse class="cls-1" cx="239.84" cy="70.8" rx="23.24" ry="27.57"/>
  <ellipse class="cls-1" cx="112.88" cy="72.29" rx="23.24" ry="26.09"/>
  <path class="cls-1" d="M123.92,131.31c18.8,8.35,39.71,14.63,60.42,15.04s38.7-8.78,56.12-18.57c6.73-3.78.69-14.15-6.06-10.36-15.59,8.76-31.68,17.29-50.07,16.93s-37.6-5.95-54.36-13.4c-7-3.11-13.11,7.23-6.06,10.36h0Z"/>
  <g>
    <path class="cls-5" d="M175.41,273.68c-16.27-13.34-39.53-10.67-60.47-12.64-20.89-1.96-41.28-9.18-58.75-20.8-6.12-4.07-12.08-8.9-15.32-15.49-3.25-6.59-3.11-15.33,2.04-20.57,2.74-2.79,6.51-4.29,10.26-5.4,20.77-6.12,46.59.94,68.22.05,63.09-2.59,115.5-3.18,174.5-12.51,17.26-2.73,35.95-5.26,51.39,2.92,10.19,5.4,17.61,14.85,23.69,24.65,15.85,25.59,24.56,55.55,24.9,85.64.08,6.76-.27,13.59-2.07,20.11-2.23,8.07-6.61,15.39-11.65,22.07-24.76,32.8-66.3,51.07-107.39,51.17-7.83.02-15.95-.65-22.79-4.47s-12.04-11.49-10.78-19.22c-6.33-.83-12.86-1.72-18.34-5-5.48-3.27-9.67-9.6-8.45-15.86-22.37-.71-43.67-15.57-52.06-36.32-1.93-4.78-3.23-10-2.33-15.07s10.61-21.87,15.61-23.11"/>
    <path class="cls-2" d="M178.59,270.5c-19.4-15.28-44.18-11.45-67.13-14.33-13.34-1.67-26.53-5.63-38.6-11.55-10.18-4.99-24.62-12.16-28.71-23.62-10.05-28.17,47.67-19.09,60.8-18.12,13.22.98,26.41.05,39.63-.44,14.13-.53,28.26-1.03,42.39-1.66,26.98-1.2,53.95-2.9,80.78-6.07,13.37-1.58,26.63-3.99,39.99-5.58s26.99-1.97,38.64,4.76c10.93,6.32,18.19,17.51,24.23,28.26,6.34,11.28,11.27,23.28,14.76,35.74s5.67,26.41,5.97,39.91c.32,14.58-2.65,26.94-11.1,38.93-15.34,21.77-38.9,37.25-64.11,45.18-12.4,3.91-25.29,6.11-38.29,6.42-12.32.3-34.09-1.78-32.15-19.14.29-2.63-2.32-4.21-4.5-4.5-9.14-1.21-23.9-4.03-22.29-16.36.33-2.49-2.33-4.4-4.5-4.5-18.44-.84-35.84-11.49-45-27.54-4.11-7.2-7-15.32-3.16-23.12,1.6-3.26,3.46-6.41,5.54-9.38,1.14-1.63,3.07-4.95,5.03-5.61,5.46-1.85,3.12-10.54-2.39-8.68-7.29,2.47-12.19,11.78-15.47,18.18-5.09,9.91-4.04,19.23.67,29.28,9.83,21,31.84,34.83,54.78,35.88l-4.5-4.5c-2.34,17.93,17.68,23.56,31.29,25.36l-4.5-4.5c-1.45,13.02,9.31,23.12,21.03,26.33,12.41,3.41,26.44,1.99,39,.11,25.64-3.85,50.27-14.65,70.14-31.34,10.03-8.42,19.23-18.63,25.66-30.09,7.25-12.93,8.42-27.04,7.64-41.6-1.56-29.01-10.52-57.76-26.12-82.31-7-11.01-15.79-21.36-28.03-26.61-12.88-5.53-27.18-5-40.8-3.23-30.22,3.94-60.13,8.03-90.58,9.89-31.03,1.89-62.14,2.97-93.21,3.99-14.39.47-28.65-1.98-43-2.48-11.96-.42-28.03-.21-37.59,8.16s-7.89,21.88-1.38,31.02c7.83,11,21.59,18.25,33.66,23.57,13.32,5.87,27.37,9.57,41.87,10.94,13.23,1.26,26.78.43,39.8,3.42,6.32,1.45,12.36,3.86,17.49,7.9,4.5,3.55,10.91-2.78,6.36-6.36h0Z"/>
  </g>
  <g>
    <path class="cls-4" d="M283.73,201.75c-9.37,13.97-19.09,27.76-28.03,42-7.26,11.57-15.03,26.41-12.44,40.57,2.8,15.3,19.8,18.16,32.46,13.35,6.88-2.61,13-7.13,18.94-11.37,6.1-4.35,12.03-8.95,17.74-13.78,13.47-11.4,25.69-24.18,36.59-38.05,3.54-4.5-2.79-10.92-6.36-6.36-10.19,12.98-21.54,25-34,35.83-6.58,5.72-13.45,11.08-20.6,16.07s-14.37,10.46-23.22,10.85c-22.84,1-9.66-28.59-3.57-38.91,9.26-15.68,20.13-30.54,30.27-45.66,3.23-4.82-4.56-9.33-7.77-4.54h0Z"/>
    <path class="cls-4" d="M263.67,236.93c-14.96-2.83-31.55.12-44.19,8.87-11.36,7.86-20.51,18.88-28.95,29.68-3.53,4.51,2.8,10.92,6.36,6.36,7.39-9.45,15.28-19.06,24.75-26.51,10.93-8.59,25.98-12.31,39.63-9.73,5.66,1.07,8.09-7.6,2.39-8.68h0Z"/>
    <path class="cls-4" d="M250.43,289.82c-10.38,5.71-22.85,15.5-26.87,27.18-1.89,5.49,6.8,7.84,8.68,2.39,1.52-4.42,5.56-8.14,8.77-11.39,4.18-4.24,8.75-7.53,13.96-10.4s.54-10.57-4.54-7.77h0Z"/>
    <path class="cls-4" d="M269.26,351.2c12.48-15.13,34.52-20.15,43.7-38.4,3.82-7.6,5.04-16.71,1.02-24.5-3.65-7.06-10.81-11.88-18.83-11.67-5.78.15-5.8,9.15,0,9,6.57-.17,11.61,5.35,12.32,11.68.89,7.95-4.14,15.36-9.65,20.52-10.83,10.14-25.31,15.36-34.92,27-3.66,4.43,2.67,10.84,6.36,6.36h0Z"/>
    <path class="cls-4" d="M289.96,386.47c9.12-5.1,17.93-10.71,26.33-16.92,6.64-4.9,15.63-10.33,16.02-19.53.36-8.4-6.46-16.93-12.54-22.11-7.82-6.67-19.5-4.6-28.91-3.48-5.68.68-5.75,9.68,0,9,7.02-.83,18-3.35,23.66,1.84,4.3,3.95,11.69,11.94,7.41,17.91-3.94,5.48-11.24,9.51-16.74,13.28-6.4,4.4-13,8.46-19.78,12.24-5.06,2.83-.52,10.6,4.54,7.77h0Z"/>
  </g>
</svg>