<?xml version="1.0" encoding="UTF-8"?>
<svg id="_レイヤー_1" data-name="レイヤー 1" xmlns="http://www.w3.org/2000/svg" viewBox="0 0 400 400">
  <defs>
    <style>
      .cls-1 {
        fill: #231815;
      }

      .cls-2 {
        fill: #fff;
      }

      .cls-3 {
        fill: #7dd8ff;
        stroke: #fff;
        stroke-miterlimit: 10;
        stroke-width: 10px;
      }

      .cls-4 {
        fill: #cf6d15;
      }

      .cls-5 {
        fill: #ffdc5d;
      }
    </style>
  </defs>
  <circle class="cls-3" cx="227.74" cy="170.14" r="161.06"/>
  <g>
    <path class="cls-5" d="M127.76,292.59c-14.12-11.57-34.29-9.26-52.47-10.97-18.13-1.7-35.81-7.96-50.97-18.05-5.31-3.53-10.48-7.72-13.29-13.44s-2.7-13.3,1.77-17.85c2.37-2.42,5.65-3.72,8.9-4.68,18.02-5.31,40.42.82,59.19.04,54.73-2.25,100.2-2.76,151.39-10.85,14.98-2.37,31.19-4.56,44.59,2.53,8.84,4.68,15.28,12.88,20.55,21.39,13.75,22.2,21.3,48.19,21.6,74.3.07,5.86-.23,11.79-1.8,17.44-1.93,7-5.74,13.35-10.11,19.15-21.48,28.46-57.52,44.31-93.17,44.39-6.79.02-13.84-.57-19.77-3.87s-10.45-9.97-9.36-16.67c-5.49-.72-11.16-1.49-15.92-4.33s-8.39-8.32-7.33-13.76c-19.41-.61-37.89-13.51-45.17-31.51-1.68-4.14-2.81-8.68-2.02-13.08.79-4.4,9.2-18.97,13.54-20.05"/>
    <path class="cls-2" d="M128.82,291.53c-8.25-6.68-18.55-9.01-28.9-9.95-10.96-.99-22.01-.67-32.88-2.57-11.64-2.04-22.95-5.94-33.34-11.56-4.96-2.68-9.92-5.66-14.22-9.33-4.08-3.48-7.6-7.82-8.59-13.21-.87-4.76.44-9.98,4.52-12.88,4.44-3.16,10.6-4.2,15.9-4.73,11.57-1.16,23.2.53,34.73,1.41,12.21.94,24.41.06,36.63-.4s24.9-.91,37.35-1.48c24.11-1.1,48.21-2.7,72.17-5.69,6.15-.77,12.28-1.62,18.4-2.57,5.81-.9,11.62-1.85,17.49-2.29,11.34-.85,22.99.26,32.46,7.12s15.24,16.75,20.38,26.47c5.53,10.46,9.73,21.6,12.53,33.09s4.26,23.49,4.05,35.39c-.11,6.39-.97,12.71-3.43,18.64-2.21,5.33-5.44,10.24-8.97,14.78-12.83,16.51-30.8,28.67-50.43,35.62-9.88,3.5-20.21,5.77-30.66,6.66-5.36.45-10.81.66-16.17.24-5.64-.44-11.66-1.82-16.02-5.64-3.6-3.15-6.28-7.89-5.56-12.8.16-1.06-.4-1.76-1.45-1.9-5.28-.69-10.88-1.43-15.48-4.33-3.89-2.45-7.16-7.08-6.32-11.87.17-.97-.4-1.86-1.45-1.9-13.26-.47-25.95-6.73-34.86-16.5-4.57-5.01-8.29-11.1-10.16-17.64-.9-3.14-1.42-6.69-.37-9.86.71-2.13,1.77-4.14,2.86-6.1,1.42-2.57,2.99-5.1,4.8-7.43.79-1.02,1.64-2.02,2.59-2.9.32-.3.65-.58,1.01-.82.41-.27.6-.36.89-.44,1.86-.51,1.07-3.41-.8-2.89-1.99.55-3.58,2.27-4.88,3.79-1.85,2.16-3.46,4.54-4.92,6.97s-2.73,4.81-3.8,7.36c-1.13,2.7-1.5,5.47-1.19,8.41.8,7.63,4.8,14.95,9.49,20.89,4.42,5.59,10.03,10.28,16.27,13.71,7.08,3.89,14.99,6.16,23.07,6.45l-1.45-1.9c-1.03,5.83,2.13,11.25,6.75,14.62,5.15,3.75,11.8,4.57,17.94,5.38l-1.45-1.9c-.79,5.37,1.27,10.49,4.95,14.4,3.99,4.23,9.58,6.43,15.23,7.34s11.6.84,17.37.49c5.37-.32,10.72-.99,16-1.98,21.21-4,41.52-13.5,57.66-27.91,8.23-7.34,15.88-16.15,20.8-26.08,2.85-5.74,4.4-11.82,4.91-18.2.5-6.33.24-12.76-.32-19.07-2.14-24.11-10.24-48.13-23.91-68.17-6.49-9.51-14.84-17.69-26.17-20.93-11.4-3.26-23.53-1.79-35.05-.04-12.6,1.92-25.2,3.68-37.88,4.97s-24.68,2.2-37.04,2.93c-25.83,1.53-51.69,2.24-77.54,3.29-11.97.49-23.8-1.29-35.72-1.95-5.93-.33-11.89-.36-17.79.45-5.45.74-11.53,2.04-15.92,5.56-4.07,3.27-5.74,8.61-5.21,13.71.56,5.44,3.31,10.16,7.08,14.02,4.02,4.12,9,7.33,13.94,10.23,5.26,3.09,10.78,5.73,16.47,7.93,11.28,4.37,23.12,6.73,35.18,7.46,10.82.65,21.93.35,32.47,3.27,5,1.39,9.78,3.58,13.83,6.87,1.49,1.2,3.62-.91,2.12-2.12h0Z"/>
  </g>
  <g>
    <path class="cls-4" d="M221.22,229.88c-5.76,8.59-11.52,17.18-17.28,25.77-4.78,7.12-9.74,14.21-13.3,22.05-5.48,12.05-9.71,32.81,7.46,37.44,16.12,4.35,31.33-9.08,43.01-18.29,14.03-11.07,26.62-23.81,37.66-37.85,3.54-4.5-2.78-10.92-6.36-6.36-8.9,11.32-18.8,21.81-29.68,31.25-5.8,5.03-11.86,9.74-18.17,14.11-5.82,4.03-11.9,8.58-19.24,8.91-19.06.85-7.65-24.27-2.6-32.83,8.04-13.62,17.47-26.52,26.28-39.64,3.23-4.82-4.56-9.33-7.77-4.54h0Z"/>
    <path class="cls-4" d="M204.5,260.13c-13.16-2.45-27.67.07-38.8,7.76-9.9,6.85-17.88,16.43-25.24,25.84-3.53,4.51,2.8,10.92,6.36,6.36,6.32-8.07,13.05-16.21,21.06-22.66,9.39-7.55,22.38-10.83,34.21-8.63,5.66,1.05,8.09-7.62,2.39-8.68h0Z"/>
    <path class="cls-4" d="M192.54,306.07c-9.15,5.04-20.04,13.65-23.59,23.93-1.89,5.49,6.8,7.84,8.68,2.39,1.28-3.72,4.76-6.89,7.46-9.62,3.6-3.64,7.51-6.47,11.99-8.93,5.08-2.79.54-10.57-4.54-7.77h0Z"/>
    <path class="cls-4" d="M209.6,360.26c10.82-13.03,29.65-17.45,37.8-33.05,3.5-6.7,4.73-14.82,1.29-21.81-3.24-6.57-9.68-10.96-17.06-10.84-5.79.09-5.8,9.09,0,9,6.16-.1,10.25,5.51,10.14,11.36-.12,6.81-4.75,12.6-9.67,16.83-9.27,7.98-20.91,12.56-28.87,22.15-3.68,4.42,2.66,10.83,6.36,6.36h0Z"/>
    <path class="cls-4" d="M227.45,390.96c8.37-4.69,16.45-9.87,24.12-15.63,5.74-4.31,12.8-8.92,12.92-16.9.12-7.49-6.11-15.32-11.73-19.75-6.84-5.38-16.81-3.61-24.83-2.66-5.68.67-5.75,9.68,0,9s14.76-2.76,19.63.98c4.03,3.09,10.39,10.69,6.52,15.59-3.59,4.56-9.62,7.95-14.36,11.2-5.44,3.73-11.06,7.17-16.82,10.39-5.05,2.83-.52,10.61,4.54,7.77h0Z"/>
  </g>
  <ellipse class="cls-2" cx="328.61" cy="122.69" rx="30.41" ry="47.45"/>
  <ellipse class="cls-1" cx="341.09" cy="122.69" rx="17.93" ry="29.21"/>
  <ellipse class="cls-2" cx="263.28" cy="122.69" rx="30.41" ry="47.45"/>
  <ellipse class="cls-1" cx="275.76" cy="122.69" rx="17.93" ry="29.21"/>
</svg>